<svg width="176" height="48" viewBox="0 0 176 48" fill="none" xmlns="http://www.w3.org/2000/svg">
    <path d="M176 10.012c-.164.127-.332.248-.491.384-.967.822-2.009.923-2.914.023a1.815 1.815 0 0 1-.629-1.378 1.795 1.795 0 0 1 .642-1.371c.899-.89 1.936-.86 2.901.012.151.136.327.245.491.366v1.964zM95.637 16.575c3.473-4.115 8.261-3.918 10.732.26.155-.173.302-.313.421-.474 1.663-2.234 3.887-3.233 6.623-2.606 2.865.658 4.174 2.882 4.355 5.526.254 3.748.164 7.523.109 11.285-.021 1.44-1.258.52-1.914.694-.656.174-1.278.112-1.256-.923.058-2.672.034-5.346.011-8.02a12.062 12.062 0 0 0-.269-3.248c-.441-1.555-1.351-2.64-3.041-2.806-1.642-.162-2.855.626-3.703 1.978a5.093 5.093 0 0 0-.698 2.817c.019 3.055-.061 6.112.039 9.166.042 1.29-.716 1.112-1.452 1.056-.751-.056-1.839.488-1.781-1.088.088-2.507.026-5.018.021-7.528 0-.764 0-1.528-.049-2.29-.152-2.578-1.468-4.11-3.527-4.138-2.13-.03-4.117 1.853-4.201 4.231-.113 3.16-.139 6.33-.018 9.49.059 1.511-.774 1.303-1.724 1.356-1.03.057-1.548-.06-1.532-1.344.06-4.963 0-9.927-.067-14.89-.011-.8.08-1.294 1.016-1.133.726.124 1.916-.528 1.801 1.052.003.527.038 1.054.104 1.577zM135.043 28.502c-1.694 2.183-3.629 3.216-6.117 3.12-3.201-.123-5.447-2.337-5.657-6.069-.202-3.59-.088-7.198-.074-10.798.007-1.502 1.202-.657 1.842-.777.611-.114 1.462-.34 1.429.899-.067 2.508-.024 5.018-.018 7.528 0 .818-.018 1.64.046 2.454.203 2.615 1.597 4.12 3.768 4.124a4.535 4.535 0 0 0 3.115-1.293 4.46 4.46 0 0 0 1.34-3.075c.072-3.107.117-6.223-.021-9.326-.065-1.487.711-1.341 1.682-1.365 1.038-.025 1.689-.016 1.662 1.407-.093 4.852-.017 9.71.003 14.564.003.752.236 1.557-1.068 1.424-.975-.099-2.098.218-1.868-1.401a9.7 9.7 0 0 0-.064-1.416zM69.324 31.619c-3.441-.006-5.115-1.603-5.2-4.77-.079-2.994-.068-5.992 0-8.987.025-1.077-.18-1.67-1.4-1.458-1.113.192-1.337-.336-1.376-1.37-.046-1.228.653-1.199 1.434-1.093 1.119.148 1.471-.32 1.327-1.357a8.316 8.316 0 0 1-.009-1.143c0-1.638.893-2.443 2.565-2.416.726.012.603.477.61.886.014 1.035.039 2.072 0 3.105-.03.72.257.965.959.92.711-.043 1.43.023 2.14-.016.909-.048 1.495-.009 1.496 1.235 0 1.275-.654 1.248-1.54 1.26-3.05.04-3.054.053-3.047 3.104.006 2.287-.032 4.577.06 6.863.081 2.02.914 2.707 2.94 2.596.651-.035 1.328-.324 1.337.78.008.84.191 1.684-1.047 1.76-.548.033-1.094.088-1.249.1zM53.06 31.583a10.163 10.163 0 0 1-4.588-.723c-1.42-.55-.354-1.414-.242-2.134.164-1.055.787-.392 1.194-.23 1.556.616 3.12 1.007 4.8.527a2.43 2.43 0 0 0 1.273-.707c.342-.36.563-.814.634-1.303a2.353 2.353 0 0 0-.192-1.358 2.377 2.377 0 0 0-.917-1.026c-.946-.683-2.072-.975-3.12-1.434-2.943-1.288-4.157-3.163-3.621-5.632.484-2.24 2.794-3.854 5.603-3.954a11.83 11.83 0 0 1 3.407.447c1.214.314 1.357.906.914 2.021-.323.813-.597.796-1.289.499a5.67 5.67 0 0 0-3.848-.384 2.286 2.286 0 0 0-1.204.668c-.323.34-.53.771-.596 1.234-.068.438.015.886.234 1.272.22.386.563.688.976.857 1.312.667 2.699 1.192 4.01 1.863 1.545.791 2.577 1.985 2.71 3.807.221 3.12-1.77 5.3-5.236 5.682-.3.028-.602.03-.902.008zM145.976 16.873c1.154-1.407 2.191-2.725 3.961-3.151.625-.15 1.511-.42 1.853.085.477.704.215 1.684.12 2.536-.048.43-.524.246-.822.28-2.802.308-4.362 1.817-4.497 4.662a98.494 98.494 0 0 0-.048 8.66c.061 1.502-.759 1.32-1.716 1.363-1.012.048-1.556-.034-1.542-1.332.057-5.012-.012-10.026-.084-15.039-.012-.804.242-1.159 1.004-.983.644.148 1.815-.662 1.776.879-.02.681-.005 1.362-.005 2.04zM175.63 22.552c0 2.56-.064 5.123.025 7.68.048 1.454-.927 1.057-1.645 1.036-.683-.02-1.685.503-1.667-.99.063-5.12.046-10.242.012-15.363-.011-1.637 1.178-.832 1.861-.95.753-.13 1.494-.186 1.443 1.07-.099 2.502-.029 5.01-.029 7.517z" fill="#BF948F"/>
    <path fill-rule="evenodd" clip-rule="evenodd" d="M79.465 31.624c2.047.01 3.671-.89 5.314-2.5a6.954 6.954 0 0 0 .172 1.619c.291.72.825.639 1.362.557.265-.04.53-.08.767-.025.48.113.853-.025.77-.682-.267-2.104-.247-4.216-.228-6.329.017-1.758.033-3.515-.116-5.266-.19-2.26-1.268-4.092-3.528-4.899-2.73-.973-5.394-.528-7.994.624-.834.368-.63.845-.428 1.319.063.148.126.295.157.44.174.794.616.584 1.073.366l.14-.066a8.507 8.507 0 0 1 3.833-.796c2.046.067 3.111.975 3.595 2.72.334 1.203-.026 1.48-1.22 1.488a12.07 12.07 0 0 0-6.596 1.73 5.474 5.474 0 0 0-2.201 2.675 5.423 5.423 0 0 0-.147 3.449c.695 2.303 2.592 3.565 5.275 3.576zm1.574-2.469c2.313-.463 3.518-2.083 3.528-4.952-.22-.14-.141-.428-.059-.731.123-.454.256-.943-.587-1.018a8.11 8.11 0 0 0-5.203 1.082 3.278 3.278 0 0 0-1.356 1.785 3.25 3.25 0 0 0 .116 2.232c.543 1.303 1.933 1.928 3.561 1.602zM158.73 31.628c2.169.08 3.89-.843 5.604-2.478.025.242.046.43.064.587.027.24.045.403.054.566.06 1.279.773 1.144 1.46 1.015.275-.052.546-.104.769-.062.907.17.796-.427.704-.92a3.492 3.492 0 0 1-.045-.275c-.225-2.16-.203-4.323-.182-6.485.01-1.052.021-2.104.003-3.156-.045-2.588-.616-4.963-3.226-6.128-2.901-1.297-5.79-.804-8.568.552-.716.35-.49.774-.272 1.185.089.168.177.333.2.49.104.72.598.55 1.078.316a8.413 8.413 0 0 1 3.819-.852c2.061.02 3.2.903 3.684 2.606.331 1.168.146 1.604-1.232 1.617-2.605.026-5.157.492-7.235 2.247a5.39 5.39 0 0 0-1.711 2.733 5.344 5.344 0 0 0 .163 3.213c.756 2.01 2.526 3.143 4.869 3.229zm1.75-2.45c2.371-.387 3.63-2.087 3.637-4.939-.104-.181-.06-.453-.016-.729.077-.476.156-.966-.518-1.032-2.021-.197-4.073.002-5.736 1.394a3.221 3.221 0 0 0-1.021 1.814c-.13.7-.024 1.422.303 2.056.723 1.348 1.952 1.662 3.351 1.435zM29.8 15.61c.018-.544.002-1.09-.048-1.632-.086-.9-.283-1.786-.586-2.64a6.73 6.73 0 0 1-.356-1.302.737.737 0 0 1 0-.271c.052-.24.21-.275.375-.161.405.307.748.687 1.012 1.12.648.982 1.13 2.063 1.428 3.198.228.852.391 1.72.487 2.595.096.848.12 1.702.07 2.553a9.648 9.648 0 0 1-.7 3.33 17.115 17.115 0 0 1-1.568 2.948c-.379.54-.795 1.053-1.246 1.536-.77.81-1.636 1.525-2.58 2.13-.826.536-1.712.975-2.64 1.31-.708.263-1.44.454-2.187.573-.412.08-.83.12-1.25.119-.367-.013-.732.028-1.103.01a11.564 11.564 0 0 1-2.558-.408 12.784 12.784 0 0 1-4.416-2.322 13.609 13.609 0 0 1-2.033-2 13.96 13.96 0 0 1-1.914-2.953 11.952 11.952 0 0 1-.843-2.111 8.03 8.03 0 0 1-.245-1.706 15.782 15.782 0 0 1-.028-1.648c.023-.853.097-1.705.22-2.55.103-.653.249-1.298.438-1.931a9.794 9.794 0 0 1 1.27-2.633c.265-.4.581-.763.94-1.082.114-.095.237-.179.377-.123.14.056.138.205.14.34a3.344 3.344 0 0 1-.291 1.145 13.624 13.624 0 0 0-.721 2.755c-.066.474-.104.952-.114 1.43-.014.424.012.848.077 1.266.113.767.295 1.521.543 2.256a10.67 10.67 0 0 0 4.56 5.51 11.682 11.682 0 0 0 3.19 1.316 9.021 9.021 0 0 0 2.84.231 9.259 9.259 0 0 0 2.472-.542 10.246 10.246 0 0 0 2.83-1.544 11.827 11.827 0 0 0 3.939-5.47c.13-.47.203-.952.219-1.438.02-.371 0-.743 0-1.204zM38.474 36.799c-2.166-2.745-3.79-3.133-4.633-3.283a12.315 12.315 0 0 0-6.318.864 430.834 430.834 0 0 0-7.287 3.524s-1.355.717-5.747 2.924c-4.391 2.208-6.348 2.688-6.65 2.726-1.784.14-2.406-.179-2.687-.358a3.924 3.924 0 0 1-1.525-2.447 4.794 4.794 0 0 1 .823-3.6 6.66 6.66 0 0 1 2.594-1.923 6.715 6.715 0 0 1 3.203-.484c-2.648-1.967-5.717-.925-6.319-.627A7.586 7.586 0 0 0 1.56 36.16a7.514 7.514 0 0 0-1.334 2.82c-.752 3.52.602 5.371.752 5.64 2.166 2.745 3.791 3.133 4.634 3.282a12.312 12.312 0 0 0 6.318-.864c3.25-1.521 7.286-3.524 7.286-3.524s1.355-.716 5.747-2.924c4.392-2.208 6.349-2.688 6.65-2.726 1.785-.139 2.407.18 2.688.358a3.925 3.925 0 0 1 1.524 2.448 4.793 4.793 0 0 1-.822 3.6s-2.151 2.469-4.84 2.25c-.721-.1-1.464-.12-.3.677.3.159 3 1.466 5.661.106a7.586 7.586 0 0 0 2.368-2.044 7.515 7.515 0 0 0 1.333-2.82c.753-3.522-.601-5.371-.75-5.64z" fill="#BF948F"/>
    <path d="M13.988 9.174c.168.988.508 1.939 1.003 2.812.236.464.575.87.992 1.186a.235.235 0 0 0 .248.025c.114-.042.077-.126.087-.2.005-.3-.052-.598-.17-.875a9.447 9.447 0 0 1-.332-2.693c-.015-.456.02-.912.106-1.36.057-.462.176-.914.354-1.344a5.79 5.79 0 0 1 .783-1.3 3.31 3.31 0 0 1 2.266-1.29 3.249 3.249 0 0 1 2.52.903 5.277 5.277 0 0 1 1.604 3.596c.015.541-.002 1.083-.048 1.622-.082.534-.145 1.07-.234 1.604a7.47 7.47 0 0 0-.217 1.135c-.004.24.102.294.328.192a.566.566 0 0 0 .172-.136 6.072 6.072 0 0 0 1.168-1.767c.304-.656.52-1.349.641-2.06.1-.67.146-1.346.137-2.022a9.103 9.103 0 0 0-.58-3.173 6.563 6.563 0 0 0-1.752-2.687A5.132 5.132 0 0 0 17.995.26a5.348 5.348 0 0 0-2.78 2.262A7.955 7.955 0 0 0 14.14 5.03c-.18.788-.288 1.591-.32 2.4.022.583.078 1.166.167 1.744z" fill="#BF948F"/>
</svg>
